<svg width="100" height="100" viewBox="0 0 100 100" fill="none" xmlns="http://www.w3.org/2000/svg">
<g clip-path="url(#clip0_6_2)">
<rect width="100" height="100" fill="#2C342B"/>
<path d="M58.1221 24.4728C52.3681 25.5467 48.6685 32.0979 44.8611 37.1269C45.4091 37.0246 46.2095 36.5667 47.0315 36.4133C48.4015 36.1576 49.7931 36.2063 51.2064 36.5595C53.2256 33.7149 55.2231 30.5659 58.5111 29.9523C60.1551 29.6455 62.1381 30.2008 63.5946 31.1628C66.5507 33.6956 66.8965 38.5664 64.3726 42.122L57.8104 51.3667C56.8008 52.789 54.6736 54.1114 53.0295 54.4183C49.1934 55.1343 47.081 52.7525 45.4731 49.6595L42.192 54.2819C44.7081 58.439 48.234 61.174 53.1661 60.2535C56.4542 59.6398 59.3602 57.5552 61.1054 54.7617L67.6677 45.517C69.9392 42.3169 71.3455 38.6614 71.0645 34.704C70.0409 28.109 64.1501 23.3477 58.1221 24.4728ZM48.9541 63.5079L46.6826 66.708C45.673 68.1302 43.5458 69.4526 41.9017 69.7595C40.2577 70.0663 38.2748 69.511 36.8183 68.549C33.8622 66.0163 33.4948 60.841 36.0403 57.5898L42.6025 48.3451C43.6121 46.9229 45.7393 45.6005 47.3834 45.2935C51.2194 44.5776 53.3535 47.2637 54.9397 50.0523L58.2209 45.43C55.7048 41.2728 52.1788 38.5378 47.2468 39.4583C43.9587 40.072 41.0527 42.1567 39.3075 44.9501L32.7452 54.1948C28.4545 60.2395 29.038 68.4589 34.042 72.4599C38.7717 76.5123 46.4657 75.3849 50.2081 69.4426L55.0035 62.687C54.2031 63.1448 53.3811 63.2982 52.5591 63.4517C51.1891 63.7074 50.0934 63.9122 48.9541 63.5079Z" fill="white"/>
<path d="M59.3279 73.8177C60.6593 75.2924 62.4417 75.3004 62.4417 75.3004C62.4417 75.3004 60.6593 75.2924 59.317 76.7551C57.9747 78.2178 57.9675 80.1761 57.9675 80.1761C57.9675 80.1761 57.9747 78.2178 56.6434 76.7431C55.312 75.2684 53.5296 75.2604 53.5296 75.2604C53.5296 75.2604 55.312 75.2684 56.6543 73.8057C57.9965 72.343 58.0038 70.3848 58.0038 70.3848C58.0038 70.3848 57.9965 72.343 59.3279 73.8177Z" fill="white"/>
<path d="M63.9809 77.6568C64.634 78.3802 65.5083 78.3841 65.5083 78.3841C65.5083 78.3841 64.634 78.3802 63.9755 79.0977C63.3171 79.8152 63.3135 80.7758 63.3135 80.7758C63.3135 80.7758 63.3171 79.8152 62.664 79.0918C62.0109 78.3684 61.1366 78.3645 61.1366 78.3645C61.1366 78.3645 62.0109 78.3684 62.6694 77.6509C63.3278 76.9334 63.3314 75.9728 63.3314 75.9728C63.3314 75.9728 63.3278 76.9334 63.9809 77.6568Z" fill="white"/>
<path d="M63.9809 70.7332C64.634 71.4566 65.5083 71.4605 65.5083 71.4605C65.5083 71.4605 64.634 71.4566 63.9755 72.1741C63.3171 72.8916 63.3135 73.8522 63.3135 73.8522C63.3135 73.8522 63.3171 72.8916 62.664 72.1683C62.0109 71.4449 61.1366 71.441 61.1366 71.441C61.1366 71.441 62.0109 71.4449 62.6694 70.7274C63.3278 70.0099 63.3314 69.0493 63.3314 69.0493C63.3314 69.0493 63.3278 70.0099 63.9809 70.7332Z" fill="white"/>
<path d="M40.2781 23.5882C41.6095 25.0629 43.3919 25.0709 43.3919 25.0709C43.3919 25.0709 41.6095 25.0629 40.2672 26.5256C38.9249 27.9883 38.9177 29.9466 38.9177 29.9466C38.9177 29.9466 38.9249 27.9883 37.5936 26.5136C36.2622 25.039 34.4798 25.031 34.4798 25.031C34.4798 25.031 36.2622 25.039 37.6045 23.5763C38.9468 22.1135 38.954 20.1553 38.954 20.1553C38.954 20.1553 38.9468 22.1135 40.2781 23.5882Z" fill="white"/>
<path d="M44.931 27.4273C45.5841 28.1506 46.4585 28.1546 46.4585 28.1546C46.4585 28.1546 45.5841 28.1506 44.9257 28.8681C44.2673 29.5856 44.2637 30.5462 44.2637 30.5462C44.2637 30.5462 44.2673 29.5856 43.6142 28.8623C42.9611 28.1389 42.0867 28.135 42.0867 28.135C42.0867 28.135 42.9611 28.1389 43.6195 27.4214C44.278 26.7039 44.2815 25.7433 44.2815 25.7433C44.2815 25.7433 44.278 26.7039 44.931 27.4273Z" fill="white"/>
<path d="M44.931 20.5037C45.5841 21.2271 46.4585 21.231 46.4585 21.231C46.4585 21.231 45.5841 21.2271 44.9257 21.9446C44.2673 22.6621 44.2637 23.6227 44.2637 23.6227C44.2637 23.6227 44.2673 22.6621 43.6142 21.9388C42.9611 21.2154 42.0867 21.2115 42.0867 21.2115C42.0867 21.2115 42.9611 21.2154 43.6195 20.4979C44.278 19.7804 44.2815 18.8198 44.2815 18.8198C44.2815 18.8198 44.278 19.7804 44.931 20.5037Z" fill="white"/>
</g>
<defs>
<clipPath id="clip0_6_2">
<rect width="100" height="100" fill="white"/>
</clipPath>
</defs>
</svg>
