<svg width="101" height="27" viewBox="0 0 101 27" fill="none" xmlns="http://www.w3.org/2000/svg">
<path d="M22.1752 16.44H24.4372V10.46H22.2532V8.9H26.0752V16.44H28.1812V18H22.1752V16.44ZM36.4922 14.854C36.4922 15.3913 36.4012 15.868 36.2192 16.284C36.0372 16.6913 35.7902 17.038 35.4782 17.324C35.1662 17.6013 34.8065 17.8137 34.3992 17.961C34.0005 18.1083 33.5802 18.182 33.1382 18.182C32.6962 18.182 32.2715 18.1083 31.8642 17.961C31.4655 17.8137 31.1102 17.6013 30.7982 17.324C30.4862 17.038 30.2392 16.6913 30.0572 16.284C29.8752 15.868 29.7842 15.3913 29.7842 14.854V14.698C29.7842 14.1693 29.8752 13.7013 30.0572 13.294C30.2392 12.878 30.4862 12.527 30.7982 12.241C31.1102 11.955 31.4655 11.7383 31.8642 11.591C32.2715 11.4437 32.6962 11.37 33.1382 11.37C33.5802 11.37 34.0005 11.4437 34.3992 11.591C34.8065 11.7383 35.1662 11.955 35.4782 12.241C35.7902 12.527 36.0372 12.878 36.2192 13.294C36.4012 13.7013 36.4922 14.1693 36.4922 14.698V14.854ZM33.1382 16.622C33.3722 16.622 33.5932 16.583 33.8012 16.505C34.0092 16.427 34.1912 16.3143 34.3472 16.167C34.5032 16.0197 34.6245 15.842 34.7112 15.634C34.8065 15.4173 34.8542 15.1747 34.8542 14.906V14.646C34.8542 14.3773 34.8065 14.139 34.7112 13.931C34.6245 13.7143 34.5032 13.5323 34.3472 13.385C34.1912 13.2377 34.0092 13.125 33.8012 13.047C33.5932 12.969 33.3722 12.93 33.1382 12.93C32.9042 12.93 32.6832 12.969 32.4752 13.047C32.2672 13.125 32.0852 13.2377 31.9292 13.385C31.7732 13.5323 31.6475 13.7143 31.5522 13.931C31.4655 14.139 31.4222 14.3773 31.4222 14.646V14.906C31.4222 15.1747 31.4655 15.4173 31.5522 15.634C31.6475 15.842 31.7732 16.0197 31.9292 16.167C32.0852 16.3143 32.2672 16.427 32.4752 16.505C32.6832 16.583 32.9042 16.622 33.1382 16.622ZM44.4261 15.634C44.2788 16.3967 43.9278 17.012 43.3731 17.48C42.8271 17.948 42.0948 18.182 41.1761 18.182C40.6995 18.182 40.2531 18.1083 39.8371 17.961C39.4298 17.8137 39.0745 17.6013 38.7711 17.324C38.4678 17.0467 38.2295 16.7043 38.0561 16.297C37.8828 15.8897 37.7961 15.426 37.7961 14.906V14.75C37.7961 14.23 37.8828 13.762 38.0561 13.346C38.2295 12.93 38.4678 12.5747 38.7711 12.28C39.0831 11.9853 39.4428 11.76 39.8501 11.604C40.2661 11.448 40.7081 11.37 41.1761 11.37C42.0775 11.37 42.8055 11.604 43.3601 12.072C43.9235 12.54 44.2788 13.1553 44.4261 13.918L42.8141 14.334C42.7621 13.9527 42.5975 13.6233 42.3201 13.346C42.0428 13.0687 41.6528 12.93 41.1501 12.93C40.9161 12.93 40.6951 12.9733 40.4871 13.06C40.2791 13.1467 40.0971 13.2723 39.9411 13.437C39.7851 13.593 39.6595 13.788 39.5641 14.022C39.4775 14.2473 39.4341 14.503 39.4341 14.789V14.867C39.4341 15.153 39.4775 15.4087 39.5641 15.634C39.6595 15.8507 39.7851 16.0327 39.9411 16.18C40.0971 16.3273 40.2791 16.44 40.4871 16.518C40.6951 16.5873 40.9161 16.622 41.1501 16.622C41.6528 16.622 42.0341 16.4963 42.2941 16.245C42.5628 15.9937 42.7361 15.6557 42.8141 15.231L44.4261 15.634ZM50.2671 17.064C50.0937 17.4713 49.8511 17.7617 49.5391 17.935C49.2271 18.0997 48.8631 18.182 48.4471 18.182C48.0571 18.182 47.6887 18.1083 47.3421 17.961C47.0041 17.8137 46.7051 17.597 46.4451 17.311C46.1851 17.025 45.9771 16.6783 45.8211 16.271C45.6737 15.8637 45.6001 15.4 45.6001 14.88V14.672C45.6001 14.1607 45.6737 13.7013 45.8211 13.294C45.9684 12.8867 46.1677 12.54 46.4191 12.254C46.6704 11.968 46.9607 11.7513 47.2901 11.604C47.6281 11.448 47.9877 11.37 48.3691 11.37C48.8284 11.37 49.1967 11.448 49.4741 11.604C49.7601 11.76 49.9854 12.0027 50.1501 12.332H50.3841V11.552H52.0221V16.05C52.0221 16.31 52.1391 16.44 52.3731 16.44H52.6201V18H51.5021C51.2074 18 50.9647 17.9133 50.7741 17.74C50.5921 17.5667 50.5011 17.3413 50.5011 17.064H50.2671ZM48.8111 16.622C49.2877 16.622 49.6691 16.466 49.9551 16.154C50.2411 15.8333 50.3841 15.4 50.3841 14.854V14.698C50.3841 14.152 50.2411 13.723 49.9551 13.411C49.6691 13.0903 49.2877 12.93 48.8111 12.93C48.3344 12.93 47.9531 13.0903 47.6671 13.411C47.3811 13.723 47.2381 14.152 47.2381 14.698V14.854C47.2381 15.4 47.3811 15.8333 47.6671 16.154C47.9531 16.466 48.3344 16.622 48.8111 16.622ZM54.015 16.44H56.277V10.46H54.093V8.9H57.915V16.44H60.021V18H54.015V16.44ZM61.832 11.552H63.743V8.9H65.381V11.552H67.708V13.112H65.381V16.05C65.381 16.31 65.498 16.44 65.732 16.44H67.474V18H64.744C64.4493 18 64.2067 17.9047 64.016 17.714C63.834 17.5233 63.743 17.2807 63.743 16.986V13.112H61.832V11.552ZM69.662 11.552H72.392V12.488H72.626C72.7473 12.1327 72.951 11.8597 73.237 11.669C73.5316 11.4697 73.8826 11.37 74.29 11.37C74.9313 11.37 75.447 11.5737 75.837 11.981C76.227 12.3797 76.422 12.9907 76.422 13.814V14.1L74.732 14.256V14.074C74.732 13.7187 74.641 13.437 74.459 13.229C74.277 13.0123 74.004 12.904 73.64 12.904C73.276 12.904 72.99 13.0297 72.782 13.281C72.574 13.5323 72.47 13.892 72.47 14.36V16.44H73.952V18H69.506V16.44H70.832V13.112H69.662V11.552ZM82.1069 17.064C81.9336 17.4713 81.6909 17.7617 81.3789 17.935C81.0669 18.0997 80.7029 18.182 80.2869 18.182C79.8969 18.182 79.5286 18.1083 79.1819 17.961C78.8439 17.8137 78.5449 17.597 78.2849 17.311C78.0249 17.025 77.8169 16.6783 77.6609 16.271C77.5136 15.8637 77.4399 15.4 77.4399 14.88V14.672C77.4399 14.1607 77.5136 13.7013 77.6609 13.294C77.8083 12.8867 78.0076 12.54 78.2589 12.254C78.5103 11.968 78.8006 11.7513 79.1299 11.604C79.4679 11.448 79.8276 11.37 80.2089 11.37C80.6683 11.37 81.0366 11.448 81.3139 11.604C81.5999 11.76 81.8253 12.0027 81.9899 12.332H82.2239V11.552H83.8619V16.05C83.8619 16.31 83.9789 16.44 84.2129 16.44H84.4599V18H83.3419C83.0473 18 82.8046 17.9133 82.6139 17.74C82.4319 17.5667 82.3409 17.3413 82.3409 17.064H82.1069ZM80.6509 16.622C81.1276 16.622 81.5089 16.466 81.7949 16.154C82.0809 15.8333 82.2239 15.4 82.2239 14.854V14.698C82.2239 14.152 82.0809 13.723 81.7949 13.411C81.5089 13.0903 81.1276 12.93 80.6509 12.93C80.1743 12.93 79.7929 13.0903 79.5069 13.411C79.2209 13.723 79.0779 14.152 79.0779 14.698V14.854C79.0779 15.4 79.2209 15.8333 79.5069 16.154C79.7929 16.466 80.1743 16.622 80.6509 16.622ZM86.0109 16.44H88.1949V13.112H86.1669V11.552H89.8329V16.44H91.7049V18H86.0109V16.44ZM90.2359 9.641C90.2359 9.81433 90.2012 9.979 90.1319 10.135C90.0712 10.2823 89.9845 10.4123 89.8719 10.525C89.7592 10.629 89.6249 10.7157 89.4689 10.785C89.3215 10.8457 89.1655 10.876 89.0009 10.876C88.8275 10.876 88.6672 10.8457 88.5199 10.785C88.3725 10.7157 88.2425 10.629 88.1299 10.525C88.0172 10.4123 87.9262 10.2823 87.8569 10.135C87.7962 9.979 87.7659 9.81433 87.7659 9.641C87.7659 9.46767 87.7962 9.30733 87.8569 9.16C87.9262 9.004 88.0172 8.874 88.1299 8.77C88.2425 8.65733 88.3725 8.57067 88.5199 8.51C88.6672 8.44067 88.8275 8.406 89.0009 8.406C89.1655 8.406 89.3215 8.44067 89.4689 8.51C89.6249 8.57067 89.7592 8.65733 89.8719 8.77C89.9845 8.874 90.0712 9.004 90.1319 9.16C90.2012 9.30733 90.2359 9.46767 90.2359 9.641ZM95.4918 18H93.8538V11.552H95.4918V12.514H95.7258C95.8732 12.15 96.1115 11.8683 96.4408 11.669C96.7702 11.4697 97.1558 11.37 97.5978 11.37C97.9098 11.37 98.2002 11.422 98.4688 11.526C98.7462 11.6213 98.9888 11.773 99.1968 11.981C99.4048 12.189 99.5652 12.4533 99.6778 12.774C99.7992 13.0947 99.8598 13.476 99.8598 13.918V18H98.2218V14.334C98.2218 13.8747 98.1092 13.515 97.8838 13.255C97.6672 12.9863 97.3508 12.852 96.9348 12.852C96.4495 12.852 96.0855 13.0167 95.8428 13.346C95.6088 13.6667 95.4918 14.1 95.4918 14.646V18Z" fill="#2C342B"/>
<path d="M46.1062 2.80466C47.1246 3.83136 48.4879 3.83692 48.4879 3.83692C48.4879 3.83692 47.1246 3.83136 46.0979 4.84971C45.0712 5.86806 45.0656 7.23143 45.0656 7.23143C45.0656 7.23143 45.0712 5.86806 44.0528 4.84137C43.0345 3.81468 41.6711 3.80912 41.6711 3.80912C41.6711 3.80912 43.0345 3.81468 44.0612 2.79632C45.0879 1.77797 45.0934 0.414604 45.0934 0.414604C45.0934 0.414604 45.0879 1.77797 46.1062 2.80466Z" fill="#2C342B"/>
<path d="M41.8774 6.21595C42.0728 6.41291 42.3374 6.41098 42.3374 6.41098C42.3374 6.41098 42.0728 6.41291 41.8713 6.61278C41.6698 6.81264 41.6657 7.07718 41.6657 7.07718C41.6657 7.07718 41.6698 6.81264 41.4744 6.61568C41.2791 6.41872 41.0145 6.42065 41.0145 6.42065C41.0145 6.42065 41.2791 6.41872 41.4806 6.21886C41.6821 6.01899 41.6862 5.75445 41.6862 5.75445C41.6862 5.75445 41.6821 6.01899 41.8774 6.21595Z" fill="#2C342B"/>
<path d="M48.5333 1.54921C48.7316 1.74907 49 1.74714 49 1.74714C49 1.74714 48.7316 1.74907 48.5271 1.95184C48.3227 2.1546 48.3186 2.42301 48.3186 2.42301C48.3186 2.42301 48.3227 2.1546 48.1245 1.95474C47.9262 1.75488 47.6578 1.75681 47.6578 1.75681C47.6578 1.75681 47.9262 1.75488 48.1307 1.55212C48.3351 1.34935 48.3392 1.08094 48.3392 1.08094C48.3392 1.08094 48.3351 1.34935 48.5333 1.54921Z" fill="#2C342B"/>
<path d="M97.8257 22.7958C98.5909 23.5672 99.6153 23.5714 99.6153 23.5714C99.6153 23.5714 98.5909 23.5672 97.8195 24.3324C97.048 25.0975 97.0439 26.1219 97.0439 26.1219C97.0439 26.1219 97.048 25.0975 96.2829 24.3261C95.5177 23.5547 94.4933 23.5505 94.4933 23.5505C94.4933 23.5505 95.5177 23.5547 96.2891 22.7895C97.0606 22.0244 97.0647 21 97.0647 21C97.0647 21 97.0606 22.0244 97.8257 22.7958Z" fill="#2C342B"/>
<path d="M94.6484 25.3589C94.7952 25.5069 94.9939 25.5054 94.9939 25.5054C94.9939 25.5054 94.7952 25.5069 94.6438 25.6571C94.4924 25.8072 94.4893 26.006 94.4893 26.006C94.4893 26.006 94.4924 25.8072 94.3456 25.6592C94.1988 25.5113 94 25.5127 94 25.5127C94 25.5127 94.1988 25.5113 94.3502 25.3611C94.5016 25.2109 94.5047 25.0121 94.5047 25.0121C94.5047 25.0121 94.5016 25.2109 94.6484 25.3589Z" fill="#2C342B"/>
<path d="M99.6494 21.8525C99.7983 22.0027 100 22.0012 100 22.0012C100 22.0012 99.7983 22.0027 99.6447 22.155C99.4911 22.3074 99.488 22.509 99.488 22.509C99.488 22.509 99.4911 22.3074 99.3422 22.1572C99.1932 22.007 98.9915 22.0085 98.9915 22.0085C98.9915 22.0085 99.1932 22.007 99.3468 21.8547C99.5004 21.7023 99.5035 21.5006 99.5035 21.5006C99.5035 21.5006 99.5004 21.7023 99.6494 21.8525Z" fill="#2C342B"/>
<g clip-path="url(#clip0_3_69)">
<path d="M14.2054 7.35055C12.6952 7.60712 11.7241 9.1722 10.7248 10.3736C10.8686 10.3492 11.0787 10.2398 11.2945 10.2032C11.654 10.1421 12.0193 10.1537 12.3903 10.2381C12.9202 9.55852 13.4445 8.80622 14.3075 8.65962C14.739 8.58632 15.2595 8.71899 15.6418 8.94881C16.4177 9.5539 16.5084 10.7176 15.846 11.567L14.1236 13.7756C13.8586 14.1154 13.3003 14.4313 12.8688 14.5046C11.8619 14.6757 11.3074 14.1067 10.8854 13.3677L10.0242 14.472C10.6847 15.4652 11.6101 16.1186 12.9046 15.8987C13.7676 15.7521 14.5304 15.254 14.9884 14.5867L16.7108 12.3781C17.307 11.6136 17.6762 10.7403 17.6024 9.79482C17.3337 8.21925 15.7876 7.08175 14.2054 7.35055ZM11.7991 16.6762L11.2029 17.4407C10.9379 17.7805 10.3796 18.0964 9.94806 18.1697C9.51656 18.243 8.9961 18.1103 8.61381 17.8805C7.83792 17.2754 7.74148 16.039 8.4096 15.2623L10.132 13.0537C10.397 12.7139 10.9553 12.398 11.3868 12.3247C12.3937 12.1536 12.9538 12.7954 13.3701 13.4616L14.2313 12.3573C13.5709 11.3641 12.6455 10.7107 11.351 10.9306C10.488 11.0773 9.72522 11.5753 9.26715 12.2426L7.54475 14.4512C6.41857 15.8953 6.57173 17.859 7.8851 18.8148C9.12653 19.783 11.146 19.5136 12.1282 18.094L13.3869 16.48C13.1768 16.5894 12.961 16.6261 12.7453 16.6627C12.3857 16.7238 12.0981 16.7728 11.7991 16.6762Z" fill="#2C342B"/>
</g>
<path d="M14.5219 19.1392C14.8713 19.4915 15.3392 19.4934 15.3392 19.4934C15.3392 19.4934 14.8713 19.4915 14.519 19.841C14.1667 20.1904 14.1648 20.6582 14.1648 20.6582C14.1648 20.6582 14.1667 20.1904 13.8173 19.8381C13.4678 19.4858 13 19.4839 13 19.4839C13 19.4839 13.4678 19.4858 13.8201 19.1363C14.1725 18.7869 14.1744 18.3191 14.1744 18.3191C14.1744 18.3191 14.1725 18.7869 14.5219 19.1392Z" fill="#2C342B"/>
<path d="M15.7432 20.0564C15.9146 20.2292 16.1441 20.2301 16.1441 20.2301C16.1441 20.2301 15.9146 20.2292 15.7418 20.4006C15.5689 20.572 15.568 20.8015 15.568 20.8015C15.568 20.8015 15.5689 20.572 15.3975 20.3992C15.2261 20.2264 14.9966 20.2254 14.9966 20.2254C14.9966 20.2254 15.2261 20.2264 15.3989 20.055C15.5717 19.8835 15.5727 19.6541 15.5727 19.6541C15.5727 19.6541 15.5717 19.8835 15.7432 20.0564Z" fill="#2C342B"/>
<path d="M15.7432 18.4023C15.9146 18.5751 16.1441 18.5761 16.1441 18.5761C16.1441 18.5761 15.9146 18.5751 15.7418 18.7465C15.5689 18.918 15.568 19.1474 15.568 19.1474C15.568 19.1474 15.5689 18.918 15.3975 18.7451C15.2261 18.5723 14.9966 18.5714 14.9966 18.5714C14.9966 18.5714 15.2261 18.5723 15.3989 18.4009C15.5717 18.2295 15.5727 18 15.5727 18C15.5727 18 15.5717 18.2295 15.7432 18.4023Z" fill="#2C342B"/>
<path d="M9.5219 7.13921C9.87134 7.49152 10.3392 7.49343 10.3392 7.49343C10.3392 7.49343 9.87134 7.49152 9.51904 7.84096C9.16673 8.19041 9.16482 8.65824 9.16482 8.65824C9.16482 8.65824 9.16673 8.19041 8.81728 7.8381C8.46784 7.48579 8.00001 7.48389 8.00001 7.48389C8.00001 7.48389 8.46784 7.48579 8.82015 7.13635C9.17245 6.7869 9.17436 6.31907 9.17436 6.31907C9.17436 6.31907 9.17245 6.7869 9.5219 7.13921Z" fill="#2C342B"/>
<path d="M10.7432 8.05637C10.9146 8.22919 11.1441 8.23012 11.1441 8.23012C11.1441 8.23012 10.9146 8.22919 10.7418 8.4006C10.5689 8.57202 10.568 8.80151 10.568 8.80151C10.568 8.80151 10.5689 8.57202 10.3975 8.3992C10.2261 8.22638 9.99662 8.22544 9.99662 8.22544C9.99662 8.22544 10.2261 8.22638 10.3989 8.05496C10.5717 7.88355 10.5727 7.65406 10.5727 7.65406C10.5727 7.65406 10.5717 7.88355 10.7432 8.05637Z" fill="#2C342B"/>
<path d="M10.7432 6.40231C10.9146 6.57513 11.1441 6.57606 11.1441 6.57606C11.1441 6.57606 10.9146 6.57513 10.7418 6.74654C10.5689 6.91796 10.568 7.14745 10.568 7.14745C10.568 7.14745 10.5689 6.91796 10.3975 6.74514C10.2261 6.57232 9.99662 6.57138 9.99662 6.57138C9.99662 6.57138 10.2261 6.57232 10.3989 6.4009C10.5717 6.22949 10.5727 6 10.5727 6C10.5727 6 10.5717 6.22949 10.7432 6.40231Z" fill="#2C342B"/>
<defs>
<clipPath id="clip0_3_69">
<rect width="18.2811" height="16.6983" fill="white" transform="translate(0 15.4156) rotate(-52.0508)"/>
</clipPath>
</defs>
</svg>
