<svg width="101" height="26" viewBox="0 0 101 26" fill="none" xmlns="http://www.w3.org/2000/svg">
<path d="M22.1752 16.0254H24.4372V10.0454H22.2532V8.4854H26.0752V16.0254H28.1812V17.5854H22.1752V16.0254ZM36.4922 14.4394C36.4922 14.9767 36.4012 15.4534 36.2192 15.8694C36.0372 16.2767 35.7902 16.6234 35.4782 16.9094C35.1662 17.1867 34.8065 17.3991 34.3992 17.5464C34.0005 17.6937 33.5802 17.7674 33.1382 17.7674C32.6962 17.7674 32.2715 17.6937 31.8642 17.5464C31.4655 17.3991 31.1102 17.1867 30.7982 16.9094C30.4862 16.6234 30.2392 16.2767 30.0572 15.8694C29.8752 15.4534 29.7842 14.9767 29.7842 14.4394V14.2834C29.7842 13.7547 29.8752 13.2867 30.0572 12.8794C30.2392 12.4634 30.4862 12.1124 30.7982 11.8264C31.1102 11.5404 31.4655 11.3237 31.8642 11.1764C32.2715 11.0291 32.6962 10.9554 33.1382 10.9554C33.5802 10.9554 34.0005 11.0291 34.3992 11.1764C34.8065 11.3237 35.1662 11.5404 35.4782 11.8264C35.7902 12.1124 36.0372 12.4634 36.2192 12.8794C36.4012 13.2867 36.4922 13.7547 36.4922 14.2834V14.4394ZM33.1382 16.2074C33.3722 16.2074 33.5932 16.1684 33.8012 16.0904C34.0092 16.0124 34.1912 15.8997 34.3472 15.7524C34.5032 15.6051 34.6245 15.4274 34.7112 15.2194C34.8065 15.0027 34.8542 14.7601 34.8542 14.4914V14.2314C34.8542 13.9627 34.8065 13.7244 34.7112 13.5164C34.6245 13.2997 34.5032 13.1177 34.3472 12.9704C34.1912 12.8231 34.0092 12.7104 33.8012 12.6324C33.5932 12.5544 33.3722 12.5154 33.1382 12.5154C32.9042 12.5154 32.6832 12.5544 32.4752 12.6324C32.2672 12.7104 32.0852 12.8231 31.9292 12.9704C31.7732 13.1177 31.6475 13.2997 31.5522 13.5164C31.4655 13.7244 31.4222 13.9627 31.4222 14.2314V14.4914C31.4222 14.7601 31.4655 15.0027 31.5522 15.2194C31.6475 15.4274 31.7732 15.6051 31.9292 15.7524C32.0852 15.8997 32.2672 16.0124 32.4752 16.0904C32.6832 16.1684 32.9042 16.2074 33.1382 16.2074ZM44.4261 15.2194C44.2788 15.9821 43.9278 16.5974 43.3731 17.0654C42.8271 17.5334 42.0948 17.7674 41.1761 17.7674C40.6995 17.7674 40.2531 17.6937 39.8371 17.5464C39.4298 17.3991 39.0745 17.1867 38.7711 16.9094C38.4678 16.6321 38.2295 16.2897 38.0561 15.8824C37.8828 15.4751 37.7961 15.0114 37.7961 14.4914V14.3354C37.7961 13.8154 37.8828 13.3474 38.0561 12.9314C38.2295 12.5154 38.4678 12.1601 38.7711 11.8654C39.0831 11.5707 39.4428 11.3454 39.8501 11.1894C40.2661 11.0334 40.7081 10.9554 41.1761 10.9554C42.0775 10.9554 42.8055 11.1894 43.3601 11.6574C43.9235 12.1254 44.2788 12.7407 44.4261 13.5034L42.8141 13.9194C42.7621 13.5381 42.5975 13.2087 42.3201 12.9314C42.0428 12.6541 41.6528 12.5154 41.1501 12.5154C40.9161 12.5154 40.6951 12.5587 40.4871 12.6454C40.2791 12.7321 40.0971 12.8577 39.9411 13.0224C39.7851 13.1784 39.6595 13.3734 39.5641 13.6074C39.4775 13.8327 39.4341 14.0884 39.4341 14.3744V14.4524C39.4341 14.7384 39.4775 14.9941 39.5641 15.2194C39.6595 15.4361 39.7851 15.6181 39.9411 15.7654C40.0971 15.9127 40.2791 16.0254 40.4871 16.1034C40.6951 16.1727 40.9161 16.2074 41.1501 16.2074C41.6528 16.2074 42.0341 16.0817 42.2941 15.8304C42.5628 15.5791 42.7361 15.2411 42.8141 14.8164L44.4261 15.2194ZM50.2671 16.6494C50.0937 17.0567 49.8511 17.3471 49.5391 17.5204C49.2271 17.6851 48.8631 17.7674 48.4471 17.7674C48.0571 17.7674 47.6887 17.6937 47.3421 17.5464C47.0041 17.3991 46.7051 17.1824 46.4451 16.8964C46.1851 16.6104 45.9771 16.2637 45.8211 15.8564C45.6737 15.4491 45.6001 14.9854 45.6001 14.4654V14.2574C45.6001 13.7461 45.6737 13.2867 45.8211 12.8794C45.9684 12.4721 46.1677 12.1254 46.4191 11.8394C46.6704 11.5534 46.9607 11.3367 47.2901 11.1894C47.6281 11.0334 47.9877 10.9554 48.3691 10.9554C48.8284 10.9554 49.1967 11.0334 49.4741 11.1894C49.7601 11.3454 49.9854 11.5881 50.1501 11.9174H50.3841V11.1374H52.0221V15.6354C52.0221 15.8954 52.1391 16.0254 52.3731 16.0254H52.6201V17.5854H51.5021C51.2074 17.5854 50.9647 17.4987 50.7741 17.3254C50.5921 17.1521 50.5011 16.9267 50.5011 16.6494H50.2671ZM48.8111 16.2074C49.2877 16.2074 49.6691 16.0514 49.9551 15.7394C50.2411 15.4187 50.3841 14.9854 50.3841 14.4394V14.2834C50.3841 13.7374 50.2411 13.3084 49.9551 12.9964C49.6691 12.6757 49.2877 12.5154 48.8111 12.5154C48.3344 12.5154 47.9531 12.6757 47.6671 12.9964C47.3811 13.3084 47.2381 13.7374 47.2381 14.2834V14.4394C47.2381 14.9854 47.3811 15.4187 47.6671 15.7394C47.9531 16.0514 48.3344 16.2074 48.8111 16.2074ZM54.015 16.0254H56.277V10.0454H54.093V8.4854H57.915V16.0254H60.021V17.5854H54.015V16.0254ZM61.832 11.1374H63.743V8.4854H65.381V11.1374H67.708V12.6974H65.381V15.6354C65.381 15.8954 65.498 16.0254 65.732 16.0254H67.474V17.5854H64.744C64.4493 17.5854 64.2067 17.4901 64.016 17.2994C63.834 17.1087 63.743 16.8661 63.743 16.5714V12.6974H61.832V11.1374ZM69.662 11.1374H72.392V12.0734H72.626C72.7473 11.7181 72.951 11.4451 73.237 11.2544C73.5316 11.0551 73.8826 10.9554 74.29 10.9554C74.9313 10.9554 75.447 11.1591 75.837 11.5664C76.227 11.9651 76.422 12.5761 76.422 13.3994V13.6854L74.732 13.8414V13.6594C74.732 13.3041 74.641 13.0224 74.459 12.8144C74.277 12.5977 74.004 12.4894 73.64 12.4894C73.276 12.4894 72.99 12.6151 72.782 12.8664C72.574 13.1177 72.47 13.4774 72.47 13.9454V16.0254H73.952V17.5854H69.506V16.0254H70.832V12.6974H69.662V11.1374ZM82.1069 16.6494C81.9336 17.0567 81.6909 17.3471 81.3789 17.5204C81.0669 17.6851 80.7029 17.7674 80.2869 17.7674C79.8969 17.7674 79.5286 17.6937 79.1819 17.5464C78.8439 17.3991 78.5449 17.1824 78.2849 16.8964C78.0249 16.6104 77.8169 16.2637 77.6609 15.8564C77.5136 15.4491 77.4399 14.9854 77.4399 14.4654V14.2574C77.4399 13.7461 77.5136 13.2867 77.6609 12.8794C77.8083 12.4721 78.0076 12.1254 78.2589 11.8394C78.5103 11.5534 78.8006 11.3367 79.1299 11.1894C79.4679 11.0334 79.8276 10.9554 80.2089 10.9554C80.6683 10.9554 81.0366 11.0334 81.3139 11.1894C81.5999 11.3454 81.8253 11.5881 81.9899 11.9174H82.2239V11.1374H83.8619V15.6354C83.8619 15.8954 83.9789 16.0254 84.2129 16.0254H84.4599V17.5854H83.3419C83.0473 17.5854 82.8046 17.4987 82.6139 17.3254C82.4319 17.1521 82.3409 16.9267 82.3409 16.6494H82.1069ZM80.6509 16.2074C81.1276 16.2074 81.5089 16.0514 81.7949 15.7394C82.0809 15.4187 82.2239 14.9854 82.2239 14.4394V14.2834C82.2239 13.7374 82.0809 13.3084 81.7949 12.9964C81.5089 12.6757 81.1276 12.5154 80.6509 12.5154C80.1743 12.5154 79.7929 12.6757 79.5069 12.9964C79.2209 13.3084 79.0779 13.7374 79.0779 14.2834V14.4394C79.0779 14.9854 79.2209 15.4187 79.5069 15.7394C79.7929 16.0514 80.1743 16.2074 80.6509 16.2074ZM86.0109 16.0254H88.1949V12.6974H86.1669V11.1374H89.8329V16.0254H91.7049V17.5854H86.0109V16.0254ZM90.2359 9.2264C90.2359 9.39973 90.2012 9.5644 90.1319 9.7204C90.0712 9.86773 89.9845 9.99773 89.8719 10.1104C89.7592 10.2144 89.6249 10.3011 89.4689 10.3704C89.3215 10.4311 89.1655 10.4614 89.0009 10.4614C88.8275 10.4614 88.6672 10.4311 88.5199 10.3704C88.3725 10.3011 88.2425 10.2144 88.1299 10.1104C88.0172 9.99773 87.9262 9.86773 87.8569 9.7204C87.7962 9.5644 87.7659 9.39973 87.7659 9.2264C87.7659 9.05307 87.7962 8.89273 87.8569 8.7454C87.9262 8.5894 88.0172 8.4594 88.1299 8.3554C88.2425 8.24273 88.3725 8.15607 88.5199 8.0954C88.6672 8.02607 88.8275 7.9914 89.0009 7.9914C89.1655 7.9914 89.3215 8.02607 89.4689 8.0954C89.6249 8.15607 89.7592 8.24273 89.8719 8.3554C89.9845 8.4594 90.0712 8.5894 90.1319 8.7454C90.2012 8.89273 90.2359 9.05307 90.2359 9.2264ZM95.4918 17.5854H93.8538V11.1374H95.4918V12.0994H95.7258C95.8732 11.7354 96.1115 11.4537 96.4408 11.2544C96.7702 11.0551 97.1558 10.9554 97.5978 10.9554C97.9098 10.9554 98.2002 11.0074 98.4688 11.1114C98.7462 11.2067 98.9888 11.3584 99.1968 11.5664C99.4048 11.7744 99.5652 12.0387 99.6778 12.3594C99.7992 12.6801 99.8598 13.0614 99.8598 13.5034V17.5854H98.2218V13.9194C98.2218 13.4601 98.1092 13.1004 97.8838 12.8404C97.6672 12.5717 97.3508 12.4374 96.9348 12.4374C96.4495 12.4374 96.0855 12.6021 95.8428 12.9314C95.6088 13.2521 95.4918 13.6854 95.4918 14.2314V17.5854Z" fill="#F6FFF5"/>
<path d="M46.1062 2.39006C47.1246 3.41676 48.4879 3.42232 48.4879 3.42232C48.4879 3.42232 47.1246 3.41676 46.0979 4.43511C45.0712 5.45346 45.0656 6.81683 45.0656 6.81683C45.0656 6.81683 45.0712 5.45346 44.0528 4.42677C43.0345 3.40008 41.6711 3.39451 41.6711 3.39451C41.6711 3.39451 43.0345 3.40008 44.0612 2.38172C45.0879 1.36337 45.0934 3.8147e-06 45.0934 3.8147e-06C45.0934 3.8147e-06 45.0879 1.36337 46.1062 2.39006Z" fill="#F6FFF5"/>
<path d="M41.8774 5.80135C42.0728 5.99831 42.3374 5.99637 42.3374 5.99637C42.3374 5.99637 42.0728 5.99831 41.8713 6.19817C41.6698 6.39803 41.6657 6.66258 41.6657 6.66258C41.6657 6.66258 41.6698 6.39803 41.4744 6.20107C41.2791 6.00411 41.0145 6.00604 41.0145 6.00604C41.0145 6.00604 41.2791 6.00411 41.4806 5.80425C41.6821 5.60439 41.6862 5.33984 41.6862 5.33984C41.6862 5.33984 41.6821 5.60439 41.8774 5.80135Z" fill="#F6FFF5"/>
<path d="M48.5333 1.13461C48.7316 1.33447 49 1.33254 49 1.33254C49 1.33254 48.7316 1.33447 48.5271 1.53723C48.3227 1.73999 48.3186 2.00841 48.3186 2.00841C48.3186 2.00841 48.3227 1.73999 48.1245 1.54013C47.9262 1.34027 47.6578 1.34221 47.6578 1.34221C47.6578 1.34221 47.9262 1.34027 48.1307 1.13751C48.3351 0.93475 48.3392 0.666336 48.3392 0.666336C48.3392 0.666336 48.3351 0.93475 48.5333 1.13461Z" fill="#F6FFF5"/>
<path d="M97.8257 22.3812C98.5909 23.1526 99.6153 23.1568 99.6153 23.1568C99.6153 23.1568 98.5909 23.1526 97.8195 23.9178C97.048 24.6829 97.0439 25.7073 97.0439 25.7073C97.0439 25.7073 97.048 24.6829 96.2829 23.9115C95.5177 23.1401 94.4933 23.1359 94.4933 23.1359C94.4933 23.1359 95.5177 23.1401 96.2891 22.3749C97.0606 21.6098 97.0647 20.5854 97.0647 20.5854C97.0647 20.5854 97.0606 21.6098 97.8257 22.3812Z" fill="#F6FFF5"/>
<path d="M94.6484 24.9443C94.7952 25.0923 94.9939 25.0908 94.9939 25.0908C94.9939 25.0908 94.7952 25.0923 94.6438 25.2425C94.4924 25.3926 94.4893 25.5914 94.4893 25.5914C94.4893 25.5914 94.4924 25.3926 94.3456 25.2446C94.1988 25.0967 94 25.0981 94 25.0981C94 25.0981 94.1988 25.0967 94.3502 24.9465C94.5016 24.7963 94.5047 24.5975 94.5047 24.5975C94.5047 24.5975 94.5016 24.7963 94.6484 24.9443Z" fill="#F6FFF5"/>
<path d="M99.6494 21.4379C99.7983 21.5881 100 21.5866 100 21.5866C100 21.5866 99.7983 21.5881 99.6447 21.7404C99.4911 21.8928 99.488 22.0944 99.488 22.0944C99.488 22.0944 99.4911 21.8928 99.3422 21.7426C99.1932 21.5924 98.9915 21.5939 98.9915 21.5939C98.9915 21.5939 99.1932 21.5924 99.3468 21.4401C99.5004 21.2877 99.5035 21.086 99.5035 21.086C99.5035 21.086 99.5004 21.2877 99.6494 21.4379Z" fill="#F6FFF5"/>
<g clip-path="url(#clip0_3_70)">
<path d="M14.2054 6.93594C12.6952 7.1925 11.7241 8.75759 10.7248 9.95904C10.8686 9.9346 11.0787 9.82522 11.2945 9.78856C11.654 9.72748 12.0193 9.73911 12.3903 9.82348C12.9202 9.14391 13.4445 8.39161 14.3075 8.24501C14.739 8.17171 15.2595 8.30438 15.6418 8.5342C16.4177 9.13929 16.5084 10.303 15.846 11.1524L14.1236 13.361C13.8586 13.7008 13.3003 14.0167 12.8688 14.09C11.8619 14.2611 11.3074 13.6921 10.8854 12.9531L10.0242 14.0574C10.6847 15.0506 11.6101 15.704 12.9046 15.4841C13.7676 15.3375 14.5304 14.8394 14.9884 14.1721L16.7108 11.9635C17.307 11.199 17.6762 10.3256 17.6024 9.38021C17.3337 7.80464 15.7876 6.66714 14.2054 6.93594ZM11.7991 16.2616L11.2029 17.0261C10.9379 17.3658 10.3796 17.6818 9.94806 17.7551C9.51656 17.8284 8.9961 17.6957 8.61381 17.4659C7.83792 16.8608 7.74148 15.6244 8.4096 14.8477L10.132 12.6391C10.397 12.2993 10.9553 11.9834 11.3868 11.9101C12.3937 11.739 12.9538 12.3808 13.3701 13.047L14.2313 11.9427C13.5709 10.9495 12.6455 10.2961 11.351 10.516C10.488 10.6626 9.72522 11.1607 9.26715 11.828L7.54475 14.0366C6.41857 15.4807 6.57173 17.4444 7.8851 18.4002C9.12653 19.3684 11.146 19.099 12.1282 17.6794L13.3869 16.0654C13.1768 16.1748 12.961 16.2115 12.7453 16.2481C12.3857 16.3092 12.0981 16.3582 11.7991 16.2616Z" fill="#F6FFF5"/>
</g>
<path d="M14.5219 18.7246C14.8713 19.0769 15.3392 19.0788 15.3392 19.0788C15.3392 19.0788 14.8713 19.0769 14.519 19.4264C14.1667 19.7758 14.1648 20.2436 14.1648 20.2436C14.1648 20.2436 14.1667 19.7758 13.8173 19.4235C13.4678 19.0712 13 19.0693 13 19.0693C13 19.0693 13.4678 19.0712 13.8201 18.7217C14.1725 18.3723 14.1744 17.9045 14.1744 17.9045C14.1744 17.9045 14.1725 18.3723 14.5219 18.7246Z" fill="#F6FFF5"/>
<path d="M15.7432 19.6418C15.9146 19.8146 16.1441 19.8155 16.1441 19.8155C16.1441 19.8155 15.9146 19.8146 15.7418 19.986C15.5689 20.1574 15.568 20.3869 15.568 20.3869C15.568 20.3869 15.5689 20.1574 15.3975 19.9846C15.2261 19.8118 14.9966 19.8108 14.9966 19.8108C14.9966 19.8108 15.2261 19.8118 15.3989 19.6404C15.5717 19.4689 15.5727 19.2395 15.5727 19.2395C15.5727 19.2395 15.5717 19.4689 15.7432 19.6418Z" fill="#F6FFF5"/>
<path d="M15.7432 17.9877C15.9146 18.1605 16.1441 18.1615 16.1441 18.1615C16.1441 18.1615 15.9146 18.1605 15.7418 18.3319C15.5689 18.5034 15.568 18.7328 15.568 18.7328C15.568 18.7328 15.5689 18.5034 15.3975 18.3305C15.2261 18.1577 14.9966 18.1568 14.9966 18.1568C14.9966 18.1568 15.2261 18.1577 15.3989 17.9863C15.5717 17.8149 15.5727 17.5854 15.5727 17.5854C15.5727 17.5854 15.5717 17.8149 15.7432 17.9877Z" fill="#F6FFF5"/>
<path d="M9.5219 6.72461C9.87134 7.07691 10.3392 7.07882 10.3392 7.07882C10.3392 7.07882 9.87134 7.07691 9.51904 7.42636C9.16673 7.7758 9.16482 8.24364 9.16482 8.24364C9.16482 8.24364 9.16673 7.7758 8.81728 7.4235C8.46784 7.07119 8.00001 7.06928 8.00001 7.06928C8.00001 7.06928 8.46784 7.07119 8.82015 6.72174C9.17245 6.3723 9.17436 5.90446 9.17436 5.90446C9.17436 5.90446 9.17245 6.3723 9.5219 6.72461Z" fill="#F6FFF5"/>
<path d="M10.7432 7.64176C10.9146 7.81458 11.1441 7.81552 11.1441 7.81552C11.1441 7.81552 10.9146 7.81458 10.7418 7.986C10.5689 8.15741 10.568 8.3869 10.568 8.3869C10.568 8.3869 10.5689 8.15741 10.3975 7.98459C10.2261 7.81177 9.99662 7.81084 9.99662 7.81084C9.99662 7.81084 10.2261 7.81177 10.3989 7.64036C10.5717 7.46895 10.5727 7.23946 10.5727 7.23946C10.5727 7.23946 10.5717 7.46895 10.7432 7.64176Z" fill="#F6FFF5"/>
<path d="M10.7432 5.9877C10.9146 6.16052 11.1441 6.16146 11.1441 6.16146C11.1441 6.16146 10.9146 6.16052 10.7418 6.33194C10.5689 6.50335 10.568 6.73284 10.568 6.73284C10.568 6.73284 10.5689 6.50335 10.3975 6.33053C10.2261 6.15771 9.99662 6.15678 9.99662 6.15678C9.99662 6.15678 10.2261 6.15771 10.3989 5.9863C10.5717 5.81488 10.5727 5.5854 10.5727 5.5854C10.5727 5.5854 10.5717 5.81488 10.7432 5.9877Z" fill="#F6FFF5"/>
<defs>
<clipPath id="clip0_3_70">
<rect width="18.2811" height="16.6983" fill="white" transform="translate(0 15.001) rotate(-52.0508)"/>
</clipPath>
</defs>
</svg>
